<svg width="20" height="20" viewBox="0 0 20 20" fill="none" xmlns="http://www.w3.org/2000/svg">
<path d="M0 5.99981H5.99981V0H0V5.99981ZM1.99962 1.99962H3.99923V3.99923H1.99962V1.99962Z" fill="white"/>
<path d="M14 0V5.99981H19.9998V0H14ZM18.0002 4.00019H16.0006V2.00058H18.0002V4.00019Z" fill="white"/>
<path d="M7 5.99981H12.9998V0H7V5.99981ZM8.99962 1.99962H10.9992V3.99923H8.99962V1.99962Z" fill="white"/>
<path d="M0 12.9998H5.99981V7H0V12.9998ZM1.99962 8.99962H3.99923V10.9992H1.99962V8.99962Z" fill="white"/>
<path d="M14 12.9998H19.9998V7H14V12.9998ZM15.9996 8.99962H17.9992V10.9992H15.9996V8.99962Z" fill="white"/>
<path d="M7 12.9998H12.9998V7H7V12.9998ZM8.99962 8.99962H10.9992V10.9992H8.99962V8.99962Z" fill="white"/>
<path d="M0 20.0001H5.99981V14.0002H0V20.0001ZM1.99962 15.9999H3.99923V17.9995H1.99962V15.9999Z" fill="white"/>
<path d="M14 20.0001H19.9998V14.0002H14V20.0001ZM15.9996 15.9999H17.9992V17.9995H15.9996V15.9999Z" fill="white"/>
<path d="M7 20.0001H12.9998V14.0002H7V20.0001ZM8.99962 15.9999H10.9992V17.9995H8.99962V15.9999Z" fill="white"/>
</svg>
