<svg width="20" height="20" viewBox="0 0 20 20" fill="none" xmlns="http://www.w3.org/2000/svg">
<path d="M5.63792 14.6283L6.69976 13.833H5.81282C5.54632 13.833 5.33395 13.6164 5.33395 13.3541V12.1132C5.33395 11.8509 5.54632 11.6343 5.81282 11.6343H9.64803L12.5172 9.48984C12.6463 9.39823 12.7878 9.3316 12.9336 9.28996V1.25338C12.9336 0.562129 12.3714 0 11.6802 0H1.25338C0.562129 0 0 0.562156 0 1.25338V15.4069C0 16.0982 0.562156 16.6603 1.25338 16.6603H5.54243C5.5466 16.6437 5.55076 16.6312 5.55493 16.6145C5.35505 16.4396 5.2093 16.2064 5.15102 15.9274C5.04275 15.4403 5.2343 14.9281 5.63821 14.6283L5.63792 14.6283ZM7.5992 8.96518C7.5992 9.23168 7.38683 9.44405 7.12033 9.44405H5.81282C5.54632 9.44405 5.33395 9.23168 5.33395 8.96518V7.7243C5.33395 7.46196 5.54632 7.24542 5.81282 7.24542H7.12033C7.38683 7.24542 7.5992 7.46195 7.5992 7.7243V8.96518ZM11.1844 8.87357C11.1844 9.1359 10.9721 9.34826 10.7056 9.34826H9.39805C9.13572 9.34826 8.91918 9.13589 8.91918 8.87357V7.6285C8.91918 7.36617 9.13571 7.15381 9.39805 7.15381H10.7056C10.9721 7.15381 11.1844 7.36618 11.1844 7.6285V8.87357ZM4.01397 13.4499C4.01397 13.7122 3.79744 13.9288 3.5351 13.9288H2.2276C1.9611 13.9288 1.74872 13.7123 1.74872 13.4499V12.209C1.74872 11.9467 1.96109 11.7302 2.2276 11.7302H3.5351C3.79744 11.7302 4.01397 11.9467 4.01397 12.209V13.4499ZM4.01397 8.96524C4.01397 9.23174 3.79744 9.44412 3.5351 9.44412H2.2276C1.9611 9.44412 1.74872 9.23175 1.74872 8.96524V7.72436C1.74872 7.46203 1.96109 7.24549 2.2276 7.24549H3.5351C3.79744 7.24549 4.01397 7.46202 4.01397 7.72436V8.96524ZM2.2276 5.22997C1.9611 5.22997 1.74872 5.01344 1.74872 4.7511V2.71904C1.74872 2.45254 1.96109 2.24016 2.2276 2.24016H10.7055C10.972 2.24016 11.1844 2.45253 11.1844 2.71904V4.7511C11.1844 5.01344 10.972 5.22997 10.7055 5.22997H2.2276Z" fill="white" fill-opacity="0.5"/>
<path d="M13.1583 14.7697L9.91023 14.116L8.47363 15.1986L11.6341 15.9065L13.1583 14.7697Z" fill="white" fill-opacity="0.5"/>
<path d="M11.942 17.2894L14.8652 15.1116L13.7035 14.8784L11.8047 16.2984C11.7672 16.3234 11.7255 16.34 11.6797 16.34C11.6631 16.34 11.6506 16.3358 11.6339 16.3317L7.94449 15.5072C7.86537 15.4905 7.80291 15.4281 7.78626 15.3489C7.7696 15.2698 7.79875 15.1866 7.86538 15.1366L9.3686 14.004L8.17766 13.7666L6.1331 15.2948C5.82497 15.5238 5.92906 16.011 6.30382 16.0902L7.04501 16.2484L11.942 17.2894Z" fill="white" fill-opacity="0.5"/>
<path d="M12.6128 12.08L15.8609 12.7462L16.6312 12.1716L13.454 11.447L12.6128 12.08Z" fill="white" fill-opacity="0.5"/>
<path d="M12.0713 11.9676L13.2789 11.0599C13.3289 11.0224 13.3913 11.0057 13.4496 11.0224L17.1641 11.8635C17.2432 11.8843 17.3057 11.9426 17.3223 12.0259C17.339 12.105 17.3057 12.1841 17.2432 12.2341L16.4062 12.8587L17.5597 13.0961L18.4508 12.434L18.9963 12.0301C19.3003 11.8011 19.1962 11.3139 18.8214 11.2347L13.379 10.0771C13.254 10.0521 13.1208 10.0813 13.0167 10.1562L10.9097 11.7302L12.0713 11.9676Z" fill="white" fill-opacity="0.5"/>
<path d="M6.59974 16.5813L6.50397 16.6521C6.19584 16.8811 6.30409 17.3642 6.67469 17.4474L7.41588 17.6057H7.42005L12.317 18.6467L14.8487 16.752L14.8779 15.6152L12.0381 17.7347L6.59974 16.5813Z" fill="white" fill-opacity="0.5"/>
<path d="M18.7004 12.767L17.5179 13.6457V13.6498L17.4346 14.8283L18.8212 13.7914L19.3667 13.3875C19.6707 13.1585 19.5666 12.6713 19.1918 12.5922L18.9919 12.5505L18.7004 12.767Z" fill="white" fill-opacity="0.5"/>
<path d="M6.97057 17.9387L6.8748 18.0095C6.56667 18.2385 6.67076 18.7215 7.04552 18.8006L12.6879 19.9999L14.8074 18.4175L14.8365 17.2808L12.4172 19.0921L6.97057 17.9387Z" fill="white" fill-opacity="0.5"/>
<path d="M19.5582 13.9496L19.3625 13.908L19.071 14.1245L17.3929 15.3779L17.3096 16.5521L19.7331 14.7407C20.0412 14.5117 19.933 14.0287 19.5582 13.9496Z" fill="white" fill-opacity="0.5"/>
<path d="M8.71729 13.4509L15.3153 14.7751L15.232 18.101L16.8664 16.882L17.1173 13.43L10.5486 12.084L8.71729 13.4509Z" fill="white" fill-opacity="0.5"/>
</svg>
