<svg width="22" height="20" viewBox="0 0 22 20" fill="none" xmlns="http://www.w3.org/2000/svg">
<path d="M10.4772 7.02002H8.31396V9.18329H10.4772V7.02002Z" fill="white" fill-opacity="0.5"/>
<path d="M18.7912 1.00064C18.7912 0.448074 18.3431 0 17.7905 0H1.00091C0.448074 0 0 0.447805 0 1.00064V3.55236H18.7909L18.7912 1.00064ZM4.11755 3.07339C3.51878 3.07339 3.03148 2.5861 3.03148 1.98732C3.03148 1.38828 3.51851 0.900983 4.11755 0.900983C4.7166 0.900983 5.20416 1.38828 5.20416 1.98732C5.20416 2.5861 4.7166 3.07339 4.11755 3.07339ZM9.39558 3.07339C8.79681 3.07339 8.30951 2.5861 8.30951 1.98732C8.30951 1.38828 8.79654 0.900983 9.39558 0.900983C9.99463 0.900983 10.4817 1.38828 10.4817 1.98732C10.4817 2.5861 9.99463 3.07339 9.39558 3.07339ZM14.6728 3.07339C14.0738 3.07339 13.5865 2.5861 13.5865 1.98732C13.5865 1.38828 14.0738 0.900983 14.6728 0.900983C15.2716 0.900983 15.7589 1.38828 15.7589 1.98732C15.7589 2.5861 15.2716 3.07339 14.6728 3.07339Z" fill="white" fill-opacity="0.5"/>
<path d="M14.6726 2.40204C14.9016 2.40204 15.0873 2.21634 15.0873 1.98727C15.0873 1.75821 14.9016 1.57251 14.6726 1.57251C14.4435 1.57251 14.2578 1.75821 14.2578 1.98727C14.2578 2.21634 14.4435 2.40204 14.6726 2.40204Z" fill="white" fill-opacity="0.5"/>
<path d="M4.1174 2.40204C4.34647 2.40204 4.53216 2.21634 4.53216 1.98727C4.53216 1.75821 4.34647 1.57251 4.1174 1.57251C3.88833 1.57251 3.70264 1.75821 3.70264 1.98727C3.70264 2.21634 3.88833 2.40204 4.1174 2.40204Z" fill="white" fill-opacity="0.5"/>
<path d="M9.39572 2.40204C9.62479 2.40204 9.81048 2.21634 9.81048 1.98727C9.81048 1.75821 9.62479 1.57251 9.39572 1.57251C9.16665 1.57251 8.98096 1.75821 8.98096 1.98727C8.98096 2.21634 9.16665 2.40204 9.39572 2.40204Z" fill="white" fill-opacity="0.5"/>
<path d="M5.19914 12.6897H3.03613V14.8527H5.19914V12.6897Z" fill="white" fill-opacity="0.5"/>
<path d="M0.000488281 16.8145C0.000488281 17.3671 0.448562 17.8152 1.0014 17.8152H11.3361C10.7704 16.9177 10.4418 15.8561 10.4418 14.7168C10.4418 11.5024 13.0478 8.89642 16.2622 8.89642C17.1686 8.89642 18.0266 9.1038 18.7914 9.47317V4.22388H0.000488281V16.8145ZM12.9208 6.68425C12.9208 6.4989 13.0712 6.34847 13.2565 6.34847H16.0909C16.2762 6.34847 16.4266 6.4989 16.4266 6.68425V8.19879C16.4266 8.38414 16.2762 8.53457 16.0909 8.53457C15.9055 8.53457 15.7551 8.38414 15.7551 8.19879V7.02004H13.5923V9.06297C13.5923 9.24832 13.4419 9.39875 13.2565 9.39875C13.0712 9.39875 12.9208 9.24832 12.9208 9.06297V6.68425ZM7.64273 6.68425C7.64273 6.4989 7.79316 6.34847 7.97851 6.34847H10.8134C10.9987 6.34847 11.1491 6.4989 11.1491 6.68425V9.5191C11.1491 9.70445 10.9987 9.85489 10.8134 9.85489H7.97851C7.79316 9.85489 7.64273 9.70445 7.64273 9.5191V6.68425ZM7.64273 12.3539C7.64273 12.1686 7.79316 12.0182 7.97851 12.0182H10.4496C10.635 12.0182 10.7854 12.1686 10.7854 12.3539C10.7854 12.5393 10.635 12.6897 10.4496 12.6897H8.3143V14.8527H9.92366C10.109 14.8527 10.2594 15.0032 10.2594 15.1885C10.2594 15.3739 10.109 15.5243 9.92366 15.5243H7.97851C7.79316 15.5243 7.64273 15.3739 7.64273 15.1885V12.3539ZM2.3647 6.68425C2.3647 6.4989 2.51513 6.34847 2.70048 6.34847H5.53506C5.72042 6.34847 5.87085 6.4989 5.87085 6.68425V9.5191C5.87085 9.70445 5.72042 9.85489 5.53506 9.85489H2.70048C2.51513 9.85489 2.3647 9.70445 2.3647 9.5191V6.68425ZM2.3647 12.3539C2.3647 12.1686 2.51513 12.0182 2.70048 12.0182H5.53506C5.72042 12.0182 5.87085 12.1686 5.87085 12.3539V15.1885C5.87085 15.3739 5.72042 15.5243 5.53506 15.5243H2.70048C2.51513 15.5243 2.3647 15.3739 2.3647 15.1885V12.3539Z" fill="white" fill-opacity="0.5"/>
<path d="M5.19914 7.02002H3.03613V9.18329H5.19914V7.02002Z" fill="white" fill-opacity="0.5"/>
<path d="M16.2621 9.43384C13.3443 9.43384 10.979 11.7991 10.979 14.717C10.979 17.6348 13.3443 20.0001 16.2621 20.0001C19.18 20.0001 21.5453 17.6348 21.5453 14.717C21.5453 11.7991 19.1797 9.43384 16.2621 9.43384ZM19.9236 14.1776L19.5561 14.9217C19.5193 14.9961 19.4502 15.0493 19.3691 15.0659C19.3511 15.0697 19.3331 15.0716 19.3151 15.0716C19.2517 15.0716 19.1894 15.049 19.1405 15.0068L18.5264 14.4808C18.4139 14.3844 18.4007 14.2149 18.4971 14.1021C18.5936 13.9895 18.7631 13.9764 18.8759 14.0728L19.0191 14.1953C18.8302 12.7391 17.5851 11.6097 16.0781 11.6097C14.4414 11.6097 13.1095 12.9416 13.1095 14.5784C13.1095 16.2151 14.4414 17.547 16.0781 17.547C16.8435 17.547 17.5701 17.2563 18.1243 16.729C18.232 16.6269 18.4018 16.631 18.5041 16.7384C18.6062 16.8459 18.6022 17.0159 18.4947 17.1183C17.8401 17.7412 16.9818 18.0842 16.0781 18.0842C14.1451 18.0842 12.5722 16.5117 12.5722 14.5784C12.5722 12.645 14.1448 11.0725 16.0781 11.0725C17.763 11.0725 19.1735 12.2679 19.508 13.8549C19.587 13.7872 19.7019 13.769 19.8016 13.8181C19.9348 13.8837 19.9894 14.0446 19.9236 14.1776ZM17.562 14.3095C17.7103 14.3095 17.8307 14.4298 17.8307 14.5781C17.8307 14.7264 17.7103 14.8467 17.562 14.8467H16.0784C15.9301 14.8467 15.8098 14.7264 15.8098 14.5781V12.7286C15.8098 12.5803 15.9301 12.4599 16.0784 12.4599C16.2267 12.4599 16.347 12.5803 16.347 12.7286V14.3095H17.562Z" fill="white" fill-opacity="0.5"/>
</svg>
