<svg width="20" height="20" viewBox="0 0 20 20" fill="none" xmlns="http://www.w3.org/2000/svg">
<path fill-rule="evenodd" clip-rule="evenodd" d="M10.0004 0C4.47699 0 0 4.47699 0 10.0004C0 15.523 4.47781 20 10.0004 20C15.523 20 20 15.5238 20 10.0004C19.9992 4.47699 15.523 0 10.0004 0ZM10.0004 18.302C5.41516 18.302 1.69714 14.5848 1.69714 10.0002C1.69714 5.41496 5.41516 1.69694 10.0004 1.69694C14.5857 1.69694 18.3022 5.41496 18.3022 10.0002C18.3022 14.5846 14.585 18.302 10.0004 18.302ZM16.6179 13.8108C15.2984 16.0979 12.829 17.6364 10.0004 17.6364C7.17183 17.6364 4.70083 16.0971 3.38124 13.8108L6.17006 12.2006C6.44319 12.0437 6.76572 12.0652 7.01417 12.2571C7.83997 12.8958 8.87599 13.2764 9.99971 13.2764C11.1241 13.2764 12.1586 12.8958 12.9844 12.2571C13.2337 12.0644 13.557 12.0429 13.8301 12.2006L16.6173 13.8108H16.6179ZM6.4783 8.39419C6.4783 6.44874 8.05504 4.87208 10.0004 4.87208C11.9459 4.87208 13.5211 6.44882 13.5211 8.39419C13.5211 10.3396 11.9443 11.9149 10.0004 11.9149C8.05647 11.9149 6.4783 10.3381 6.4783 8.39419Z" fill="white" fill-opacity="0.5"/>
</svg>
