<svg width="20" height="20" viewBox="0 0 20 20" fill="none" xmlns="http://www.w3.org/2000/svg">
<path fill-rule="evenodd" clip-rule="evenodd" d="M9.99994 5.52569C8.32996 5.52569 6.9766 6.87897 6.9766 8.54891C6.9766 9.06806 7.10743 9.55638 7.33826 9.98302C6.98159 11.0771 7.33243 12.2588 8.18743 12.987C7.6141 13.2054 7.09078 13.5237 6.63828 13.9203C7.31076 12.2287 6.07077 10.3521 4.21589 10.3521C3.19674 10.3521 2.31423 10.9371 1.88588 11.7903C1.70171 11.3304 1.55587 10.8512 1.4517 10.3562C2.36754 10.2621 3.08169 9.48878 3.08169 8.54798C3.08169 7.60803 2.36752 6.83388 1.4517 6.73972C1.67754 5.66811 2.09921 4.66982 2.67753 3.78241C3.3917 4.36323 4.44335 4.32071 5.1076 3.65575C5.7726 2.99078 5.81426 1.93915 5.23343 1.22578C6.12093 0.64748 7.1201 0.225824 8.19085 0C8.28502 0.915799 9.05835 1.62992 9.99918 1.62992C10.9392 1.62992 11.7142 0.915777 11.8075 0C12.8792 0.225824 13.8775 0.64748 14.7649 1.22578C14.1841 1.93992 14.2266 2.99069 14.8916 3.65575C15.5566 4.32072 16.6083 4.36238 17.3217 3.78241C17.9008 4.66988 18.3217 5.669 18.5475 6.73972C17.6317 6.83388 16.9175 7.60718 16.9175 8.54798C16.9175 9.48792 17.6317 10.2621 18.5475 10.3562C18.4442 10.8495 18.2983 11.327 18.1158 11.7862C17.6867 10.9362 16.8059 10.3529 15.7884 10.3529C13.9334 10.3529 12.6934 12.2295 13.366 13.9203C12.9135 13.5236 12.3902 13.2053 11.8177 12.987C12.6752 12.2579 13.0252 11.0729 12.6652 9.97808C12.8935 9.55226 13.0235 9.06646 13.0235 8.54898C13.0235 6.87906 11.6702 5.52575 10.0002 5.52575L9.99994 5.52569ZM15.7883 10.8522C14.625 10.8522 13.6825 11.7946 13.6825 12.9579C13.6825 14.1212 14.625 15.0636 15.7883 15.0636C16.9516 15.0636 17.8941 14.1212 17.8941 12.9579C17.8941 11.7946 16.9516 10.8522 15.7883 10.8522ZM4.21587 10.8522C3.05255 10.8522 2.11005 11.7946 2.11005 12.9579C2.11005 14.1212 3.05255 15.0636 4.21587 15.0636C5.37919 15.0636 6.32169 14.1212 6.32169 12.9579C6.32169 11.7946 5.37919 10.8522 4.21587 10.8522ZM19.9958 19.6033L20 19.275C20 17.3818 18.75 15.7793 17.0291 15.2494C16.2575 15.6685 15.3192 15.6685 14.5474 15.2494C12.8275 15.7794 11.5766 17.381 11.5766 19.275L11.5724 19.6033C11.5724 19.8217 11.7499 20 11.9683 20H19.5998C19.8181 20 19.9958 19.8217 19.9958 19.6033ZM8.42342 19.6033L8.42759 19.275C8.42759 17.3818 7.17759 15.7793 5.45672 15.2494C4.68506 15.6685 3.74674 15.6685 2.97503 15.2494C1.25504 15.7794 0.00416659 17.381 0.00416659 19.275L0 19.6033C0 19.8217 0.177499 20 0.395838 20H8.02737C8.24569 20 8.42342 19.8217 8.42342 19.6033ZM10.0026 8.55062C8.73092 8.55062 7.70093 9.5814 7.70093 10.8522C7.70093 12.1238 8.73175 13.1537 10.0026 13.1537C11.2742 13.1537 12.3042 12.1229 12.3042 10.8522C12.3042 9.58057 11.2734 8.55062 10.0026 8.55062ZM13.7201 15.0421C13.1284 14.2346 12.2809 13.6263 11.296 13.3388C10.9093 13.5405 10.4693 13.6546 10.0035 13.6546C9.53684 13.6546 9.09768 13.5405 8.71101 13.3388C7.72601 13.6263 6.87768 14.2346 6.28692 15.0421C7.64441 15.707 8.63528 17.0045 8.87357 18.5502H11.1336C11.3728 17.0044 12.3636 15.7061 13.7211 15.0421H13.7201Z" fill="white" fill-opacity="0.5"/>
</svg>
