<svg width="20" height="20" viewBox="0 0 20 20" fill="none" xmlns="http://www.w3.org/2000/svg">
<path fill-rule="evenodd" clip-rule="evenodd" d="M10.3174 15.3621C10.3174 15.9743 10.4278 16.5593 10.6251 17.1023H1.06251C0.477553 17.1023 0 16.6247 0 16.0398V13.0428C0 10.1826 2.33986 7.84563 5.19728 7.84563H10.2168C12.0996 7.84563 13.7568 8.86026 14.6691 10.3681C12.213 10.705 10.3176 12.8124 10.3176 15.3623L10.3174 15.3621ZM7.70717 7.10541C9.66421 7.10541 11.2599 5.51071 11.2599 3.55271C11.2599 1.59473 9.66521 0 7.70717 0C5.75014 0 4.1544 1.59471 4.1544 3.55271C4.15538 5.50971 5.75304 7.10541 7.70717 7.10541ZM15.3897 12.1621C15.045 12.1621 14.7618 12.4443 14.7618 12.79V13.7754H16.0196V12.79C16.0196 12.4453 15.7354 12.1621 15.3897 12.1621ZM20 15.3623C20 17.918 17.918 20 15.3622 20C12.8075 20 10.7244 17.918 10.7244 15.3623C10.7244 12.8096 12.8065 10.7246 15.3622 10.7246C17.918 10.7246 20 12.8095 20 15.3623ZM17.665 17.6699L17.168 13.8252C17.1504 13.6904 17.0351 13.5899 16.8984 13.5899H16.6709V12.7901C16.6709 12.083 16.0957 11.5079 15.3906 11.5079C14.6855 11.5079 14.1084 12.083 14.1084 12.7901V13.5899H13.8281C13.6904 13.5899 13.5752 13.6895 13.5586 13.8252L13.0615 17.6679C13.0517 17.748 13.0713 17.8232 13.1269 17.8827C13.1797 17.9452 13.249 17.9755 13.332 17.9755H17.3975C17.4796 17.9755 17.5499 17.9433 17.6026 17.8827C17.6553 17.8222 17.6748 17.75 17.665 17.6699Z" fill="white" fill-opacity="0.5"/>
</svg>
