<svg width="19" height="20" viewBox="0 0 19 20" fill="none" xmlns="http://www.w3.org/2000/svg">
<path d="M9.26539 16.4385C10.1863 16.4385 10.9356 15.6892 10.9356 14.7683C10.9356 13.8474 10.1863 13.0981 9.26539 13.0981C8.34449 13.0981 7.59521 13.8474 7.59521 14.7683C7.59521 15.6892 8.34449 16.4385 9.26539 16.4385ZM9.26539 13.7963C9.80142 13.7963 10.2374 14.2323 10.2374 14.7683C10.2374 15.3043 9.80142 15.7404 9.26539 15.7404C8.72936 15.7404 8.29333 15.3043 8.29333 14.7683C8.29333 14.2323 8.72936 13.7963 9.26539 13.7963Z" fill="white" fill-opacity="0.5"/>
<path d="M0.743122 18.9548H0.252441V19.9999H18.2783V18.9548H17.7876H0.743122Z" fill="white" fill-opacity="0.5"/>
<path d="M18.5309 7.96484H14.2471V8.74156C14.2471 9.92268 15.208 10.8836 16.3889 10.8836C17.5697 10.8836 18.5309 9.92268 18.5309 8.74156V7.96484Z" fill="white" fill-opacity="0.5"/>
<path d="M6.74346 15.0009H6.64648C6.75811 16.266 7.76784 17.276 9.03291 17.3874V17.2904C9.03291 17.162 9.1371 17.0578 9.26546 17.0578C9.39383 17.0578 9.49801 17.162 9.49801 17.2904V17.3874C10.7631 17.2757 11.7731 16.266 11.8844 15.0009H11.7875C11.6591 15.0009 11.5549 14.8967 11.5549 14.7684C11.5549 14.64 11.6591 14.5358 11.7875 14.5358H11.8844C11.7728 13.2705 10.7631 12.2608 9.49801 12.1492V12.2464C9.49801 12.3747 9.39383 12.4789 9.26546 12.4789C9.1371 12.4789 9.03291 12.3747 9.03291 12.2464V12.1492C7.76784 12.2608 6.75788 13.2705 6.64648 14.5358H6.74346C6.87183 14.5358 6.97601 14.64 6.97601 14.7684C6.97601 14.8967 6.87183 15.0009 6.74346 15.0009ZM9.26546 12.6331C10.4429 12.6331 11.4007 13.591 11.4007 14.7684C11.4007 15.9458 10.4429 16.9037 9.26546 16.9037C8.08806 16.9037 7.13019 15.9458 7.13019 14.7684C7.13019 13.591 8.08806 12.6331 9.26546 12.6331Z" fill="white" fill-opacity="0.5"/>
<path d="M2.14182 11.3487C1.7223 11.3487 1.3272 11.2468 0.975586 11.0701V18.4901H17.555V11.0701C17.2036 11.2468 16.8083 11.3487 16.3888 11.3487C15.333 11.3487 14.4237 10.7166 14.0142 9.81201C13.6047 10.7166 12.6954 11.3487 11.6396 11.3487C10.5839 11.3487 9.67459 10.7166 9.26506 9.81201C8.85554 10.7166 7.94627 11.3487 6.8905 11.3487C5.83472 11.3487 4.92545 10.7166 4.51593 9.81201C4.10641 10.7166 3.19737 11.3487 2.14136 11.3487H2.14182ZM6.06053 14.5358H6.18122C6.29517 13.0142 7.5114 11.798 9.03275 11.684V11.5636C9.03275 11.4352 9.13693 11.331 9.2653 11.331C9.39366 11.331 9.49785 11.4352 9.49785 11.5636V11.684C11.0194 11.798 12.2354 13.0142 12.3494 14.5358H12.4701C12.5984 14.5358 12.7026 14.64 12.7026 14.7683C12.7026 14.8967 12.5984 15.0009 12.4701 15.0009H12.3494C12.2354 16.5225 11.0192 17.7385 9.49785 17.8524V17.9729C9.49785 18.1013 9.39366 18.2054 9.2653 18.2054C9.13693 18.2054 9.03275 18.1013 9.03275 17.9729V17.8524C7.51117 17.7385 6.29517 16.5222 6.18122 15.0009H6.06053C5.93216 15.0009 5.82798 14.8967 5.82798 14.7683C5.82798 14.64 5.93216 14.5358 6.06053 14.5358Z" fill="white" fill-opacity="0.5"/>
<path d="M11.6401 10.8836C12.8212 10.8836 13.7821 9.92268 13.7821 8.74156V7.96484H9.49805V8.74156C9.49805 9.92268 10.4589 10.8836 11.6401 10.8836Z" fill="white" fill-opacity="0.5"/>
<path d="M2.14202 10.8836C3.32314 10.8836 4.2838 9.92268 4.2838 8.74156V7.96484H0V8.74156C0 9.92268 0.960897 10.8836 2.14202 10.8836Z" fill="white" fill-opacity="0.5"/>
<path d="M12.1028 0H9.49805V5.63329H13.7065L12.1028 0Z" fill="white" fill-opacity="0.5"/>
<path d="M18.3634 5.63329L15.1563 0H12.5864L14.1901 5.63329H18.3634Z" fill="white" fill-opacity="0.5"/>
<path d="M5.94449 0H3.37458L0.16748 5.63329H4.34082L5.94449 0Z" fill="white" fill-opacity="0.5"/>
<path d="M9.26526 15.2754C9.54479 15.2754 9.77222 15.048 9.77222 14.7684C9.77222 14.4889 9.54479 14.2615 9.26526 14.2615C8.98573 14.2615 8.7583 14.4889 8.7583 14.7684C8.7583 15.048 8.98573 15.2754 9.26526 15.2754Z" fill="white" fill-opacity="0.5"/>
<path d="M9.26549 7.49974H14.0146H18.531V6.09839H14.0153H14.0144H14.0137H4.51728H4.51659H4.51566H0V7.49974H4.51635H9.26549Z" fill="white" fill-opacity="0.5"/>
<path d="M9.03316 5.63329V0H6.42837L4.82471 5.63329H9.03316Z" fill="white" fill-opacity="0.5"/>
<path d="M6.89104 10.8836C8.07216 10.8836 9.03306 9.92268 9.03306 8.74156V7.96484H4.74902V8.74156C4.74902 9.92268 5.70992 10.8836 6.89104 10.8836Z" fill="white" fill-opacity="0.5"/>
</svg>
